<svg width="40" height="40" viewBox="0 0 40 40" fill="none" xmlns="http://www.w3.org/2000/svg">
<path d="M37.5 10C37.5 8.67393 36.9732 7.40216 36.0355 6.46447C35.0979 5.52679 33.8261 5.00001 32.5 5.00001H31.25V3.78516C31.25 3.11251 30.7328 2.53516 30.0602 2.50157C29.8911 2.49343 29.7222 2.51968 29.5637 2.57875C29.4051 2.63781 29.2602 2.72845 29.1377 2.84518C29.0152 2.96191 28.9177 3.10229 28.851 3.25782C28.7844 3.41336 28.75 3.5808 28.75 3.75001V5.00001H11.25V3.78516C11.25 3.11251 10.7328 2.53516 10.0602 2.50157C9.89114 2.49343 9.72224 2.51968 9.56367 2.57875C9.40511 2.63781 9.26019 2.72845 9.13769 2.84518C9.01519 2.96191 8.91767 3.10229 8.85103 3.25782C8.78438 3.41336 8.75002 3.5808 8.75 3.75001V5.00001H7.5C6.17392 5.00001 4.90215 5.52679 3.96447 6.46447C3.02678 7.40216 2.5 8.67393 2.5 10V10.9375C2.5 11.0204 2.53292 11.0999 2.59153 11.1585C2.65013 11.2171 2.72962 11.25 2.8125 11.25H37.1875C37.2704 11.25 37.3499 11.2171 37.4085 11.1585C37.4671 11.0999 37.5 11.0204 37.5 10.9375V10ZM2.5 32.5C2.5 33.8261 3.02678 35.0979 3.96447 36.0355C4.90215 36.9732 6.17392 37.5 7.5 37.5H32.5C33.8261 37.5 35.0979 36.9732 36.0355 36.0355C36.9732 35.0979 37.5 33.8261 37.5 32.5V13.9844C37.5 13.9222 37.4753 13.8626 37.4314 13.8187C37.3874 13.7747 37.3278 13.75 37.2656 13.75H2.73438C2.67221 13.75 2.6126 13.7747 2.56865 13.8187C2.52469 13.8626 2.5 13.9222 2.5 13.9844V32.5ZM29.375 16.25C29.7458 16.25 30.1084 16.36 30.4167 16.566C30.725 16.772 30.9654 17.0649 31.1073 17.4075C31.2492 17.7501 31.2863 18.1271 31.214 18.4908C31.1416 18.8545 30.963 19.1886 30.7008 19.4508C30.4386 19.7131 30.1045 19.8916 29.7408 19.964C29.3771 20.0363 29.0001 19.9992 28.6575 19.8573C28.3149 19.7154 28.022 19.475 27.816 19.1667C27.61 18.8584 27.5 18.4958 27.5 18.125C27.5 17.6277 27.6975 17.1508 28.0492 16.7992C28.4008 16.4476 28.8777 16.25 29.375 16.25ZM29.375 22.5C29.7458 22.5 30.1084 22.61 30.4167 22.816C30.725 23.022 30.9654 23.3149 31.1073 23.6575C31.2492 24.0001 31.2863 24.3771 31.214 24.7408C31.1416 25.1045 30.963 25.4386 30.7008 25.7008C30.4386 25.9631 30.1045 26.1416 29.7408 26.214C29.3771 26.2863 29.0001 26.2492 28.6575 26.1073C28.3149 25.9654 28.022 25.725 27.816 25.4167C27.61 25.1084 27.5 24.7458 27.5 24.375C27.5 23.8777 27.6975 23.4008 28.0492 23.0492C28.4008 22.6976 28.8777 22.5 29.375 22.5ZM23.125 16.25C23.4958 16.25 23.8584 16.36 24.1667 16.566C24.475 16.772 24.7154 17.0649 24.8573 17.4075C24.9992 17.7501 25.0363 18.1271 24.964 18.4908C24.8916 18.8545 24.713 19.1886 24.4508 19.4508C24.1886 19.7131 23.8545 19.8916 23.4908 19.964C23.1271 20.0363 22.7501 19.9992 22.4075 19.8573C22.0649 19.7154 21.772 19.475 21.566 19.1667C21.36 18.8584 21.25 18.4958 21.25 18.125C21.25 17.6277 21.4475 17.1508 21.7992 16.7992C22.1508 16.4476 22.6277 16.25 23.125 16.25ZM23.125 22.5C23.4958 22.5 23.8584 22.61 24.1667 22.816C24.475 23.022 24.7154 23.3149 24.8573 23.6575C24.9992 24.0001 25.0363 24.3771 24.964 24.7408C24.8916 25.1045 24.713 25.4386 24.4508 25.7008C24.1886 25.9631 23.8545 26.1416 23.4908 26.214C23.1271 26.2863 22.7501 26.2492 22.4075 26.1073C22.0649 25.9654 21.772 25.725 21.566 25.4167C21.36 25.1084 21.25 24.7458 21.25 24.375C21.25 23.8777 21.4475 23.4008 21.7992 23.0492C22.1508 22.6976 22.6277 22.5 23.125 22.5ZM23.125 28.75C23.4958 28.75 23.8584 28.86 24.1667 29.066C24.475 29.272 24.7154 29.5649 24.8573 29.9075C24.9992 30.2501 25.0363 30.6271 24.964 30.9908C24.8916 31.3545 24.713 31.6886 24.4508 31.9508C24.1886 32.2131 23.8545 32.3916 23.4908 32.464C23.1271 32.5363 22.7501 32.4992 22.4075 32.3573C22.0649 32.2154 21.772 31.975 21.566 31.6667C21.36 31.3584 21.25 30.9958 21.25 30.625C21.25 30.1277 21.4475 29.6508 21.7992 29.2992C22.1508 28.9476 22.6277 28.75 23.125 28.75ZM16.875 22.5C17.2458 22.5 17.6084 22.61 17.9167 22.816C18.225 23.022 18.4654 23.3149 18.6073 23.6575C18.7492 24.0001 18.7863 24.3771 18.714 24.7408C18.6416 25.1045 18.463 25.4386 18.2008 25.7008C17.9386 25.9631 17.6045 26.1416 17.2408 26.214C16.8771 26.2863 16.5001 26.2492 16.1575 26.1073C15.8149 25.9654 15.522 25.725 15.316 25.4167C15.11 25.1084 15 24.7458 15 24.375C15 23.8777 15.1975 23.4008 15.5492 23.0492C15.9008 22.6976 16.3777 22.5 16.875 22.5ZM16.875 28.75C17.2458 28.75 17.6084 28.86 17.9167 29.066C18.225 29.272 18.4654 29.5649 18.6073 29.9075C18.7492 30.2501 18.7863 30.6271 18.714 30.9908C18.6416 31.3545 18.463 31.6886 18.2008 31.9508C17.9386 32.2131 17.6045 32.3916 17.2408 32.464C16.8771 32.5363 16.5001 32.4992 16.1575 32.3573C15.8149 32.2154 15.522 31.975 15.316 31.6667C15.11 31.3584 15 30.9958 15 30.625C15 30.1277 15.1975 29.6508 15.5492 29.2992C15.9008 28.9476 16.3777 28.75 16.875 28.75ZM10.625 22.5C10.9958 22.5 11.3584 22.61 11.6667 22.816C11.975 23.022 12.2154 23.3149 12.3573 23.6575C12.4992 24.0001 12.5363 24.3771 12.464 24.7408C12.3916 25.1045 12.213 25.4386 11.9508 25.7008C11.6886 25.9631 11.3545 26.1416 10.9908 26.214C10.6271 26.2863 10.2501 26.2492 9.90747 26.1073C9.56486 25.9654 9.27202 25.725 9.06599 25.4167C8.85997 25.1084 8.75 24.7458 8.75 24.375C8.75 23.8777 8.94754 23.4008 9.29917 23.0492C9.65081 22.6976 10.1277 22.5 10.625 22.5ZM10.625 28.75C10.9958 28.75 11.3584 28.86 11.6667 29.066C11.975 29.272 12.2154 29.5649 12.3573 29.9075C12.4992 30.2501 12.5363 30.6271 12.464 30.9908C12.3916 31.3545 12.213 31.6886 11.9508 31.9508C11.6886 32.2131 11.3545 32.3916 10.9908 32.464C10.6271 32.5363 10.2501 32.4992 9.90747 32.3573C9.56486 32.2154 9.27202 31.975 9.06599 31.6667C8.85997 31.3584 8.75 30.9958 8.75 30.625C8.75 30.1277 8.94754 29.6508 9.29917 29.2992C9.65081 28.9476 10.1277 28.75 10.625 28.75Z" fill="#80BFF9"/>
</svg>
