<svg width="27" height="27" viewBox="0 0 27 27" fill="none" xmlns="http://www.w3.org/2000/svg">
<path d="M11.4142 3.65401C11.5823 3.23856 11.8707 2.88277 12.2423 2.63225C12.6139 2.38173 13.0518 2.24789 13.5 2.24789C13.9482 2.24789 14.3861 2.38173 14.7577 2.63225C15.1293 2.88277 15.4176 3.23856 15.5857 3.65401C17.2493 4.11152 18.7167 5.10251 19.7626 6.47476C20.8084 7.84701 21.3749 9.52464 21.375 11.25V16.5341L23.436 19.6256C23.549 19.7951 23.6139 19.992 23.6238 20.1954C23.6337 20.3989 23.5882 20.6012 23.4921 20.7807C23.396 20.9603 23.253 21.1105 23.0782 21.2151C22.9035 21.3198 22.7037 21.375 22.5 21.375H17.3981C17.2627 22.3122 16.7941 23.1693 16.0781 23.7892C15.3622 24.4091 14.447 24.7503 13.5 24.7503C12.553 24.7503 11.6377 24.4091 10.9218 23.7892C10.2059 23.1693 9.73731 22.3122 9.60186 21.375H4.49999C4.29631 21.375 4.09645 21.3198 3.92173 21.2151C3.747 21.1105 3.60396 20.9603 3.50788 20.7807C3.41179 20.6012 3.36626 20.3989 3.37614 20.1954C3.38602 19.992 3.45095 19.7951 3.56399 19.6256L5.62499 16.5341V11.25C5.62499 7.62301 8.07749 4.56751 11.4142 3.65401ZM11.9092 21.375C12.0254 21.7042 12.2409 21.9893 12.5259 22.191C12.8109 22.3926 13.1514 22.5009 13.5005 22.5009C13.8497 22.5009 14.1902 22.3926 14.4752 22.191C14.7602 21.9893 14.9757 21.7042 15.0919 21.375H11.9092ZM13.5 5.62501C12.0081 5.62501 10.5774 6.21764 9.52251 7.27253C8.46762 8.32742 7.87499 9.75816 7.87499 11.25V16.875C7.87504 17.0972 7.80927 17.3145 7.68599 17.4994L6.60261 19.125H20.3962L19.3129 17.4994C19.19 17.3144 19.1246 17.0971 19.125 16.875V11.25C19.125 9.75816 18.5324 8.32742 17.4775 7.27253C16.4226 6.21764 14.9918 5.62501 13.5 5.62501Z" fill="#777777"/>
</svg>
